<?xml version="1.0" standalone="no"?><!DOCTYPE svg PUBLIC "-//W3C//DTD SVG 1.1//EN" "http://www.w3.org/Graphics/SVG/1.1/DTD/svg11.dtd"><svg t="1640921959757" class="icon" viewBox="0 0 1024 1024" version="1.1" xmlns="http://www.w3.org/2000/svg" p-id="1715" xmlns:xlink="http://www.w3.org/1999/xlink" width="200" height="200"><defs><style type="text/css"></style></defs><path d="M96 540.8l755.2 0-230.4 236.8c-12.8 12.8-12.8 32 0 44.8 12.8 12.8 32 12.8 44.8 0l284.8-291.2c0 0 0-3.2 3.2-3.2 3.2-3.2 3.2-3.2 3.2-6.4 0-3.2 3.2-6.4 3.2-9.6 0 0 0 0 0-3.2 0 0 0 0 0 0 0-3.2 0-9.6-3.2-12.8-3.2-3.2-3.2-6.4-6.4-9.6l-288-288C656 192 649.6 188.8 640 188.8S624 192 617.6 198.4c-12.8 12.8-12.8 32 0 44.8l233.6 233.6L96 476.8c-19.2 0-32 12.8-32 32S76.8 540.8 96 540.8z" p-id="1716"></path></svg>