<?xml version="1.0" standalone="no"?><!DOCTYPE svg PUBLIC "-//W3C//DTD SVG 1.1//EN" "http://www.w3.org/Graphics/SVG/1.1/DTD/svg11.dtd"><svg t="1640920637447" class="icon" viewBox="0 0 1024 1024" version="1.1" xmlns="http://www.w3.org/2000/svg" p-id="1583" xmlns:xlink="http://www.w3.org/1999/xlink" width="200" height="200"><defs><style type="text/css"></style></defs><path d="M953.13379326 252.76072294h-65.35420196v-49.12170004c0-55.82396999-46.5482546-115.83332374-148.77908111-115.83332373H295.26499188c-102.2308265 0-148.75080148 60.03763338-148.75080149 115.83332373v49.12170004H81.15998845c-33.00231661 0-49.12170003 16.11938343-49.12170003 49.14997967V836.08444585c0 58.08633959 28.25134044 66.71162371 45.16255321 66.7116237h62.86559538v17.70304216c0 1.78161606 0.33935545 17.70304217 12.13195702 29.6087622 5.31656857 5.31656857 14.959919 11.67948308 31.07930244 11.67948308h667.71010913c16.00626495 0 25.76273388-6.36291451 31.10758207-11.67948308 11.82088118-11.79260157 12.16023662-27.79886653 12.16023663-29.49564373v-17.70304215h62.86559538c16.91121278 0 45.13427361-8.76668222 45.13427361-66.71162372V301.91070261c-0.02827963-33.14371471-16.09110381-49.14997966-49.12170003-49.14997967z m-783.00612012-49.12170004c0-45.9543826 38.68652025-92.24812062 125.13731874-92.24812062h443.87691641c86.45079852 0 125.10903914 46.40685651 125.10903912 92.24812062v598.05740496H170.12767314V203.6390229z m808.51433739 632.33230446c0 28.70381435-7.26786236 43.21125943-21.54907047 43.21125945h-86.47907813v41.20340643c-0.11311847 5.31656857-2.2623696 17.81616063-19.62605633 17.81616063H183.39081494c-17.36368672 0-19.51293783-12.47131244-19.62605631-17.70304216v-41.1751268H77.31396012c-14.30948775 0-21.5773501-14.56400433-21.5773501-43.23953906V301.91070261c0-22.02982403 7.49409931-25.53649692 25.5364969-25.5364969h67.64485118v546.67333529h736.79722094V276.37420571h67.53173268c18.04239759 0 25.5082173 3.50667287 25.5082173 25.5364969l-0.11311849 534.06062475z m0 0" p-id="1584"></path></svg>